<?xml version="1.0" encoding="UTF-8"?>
<svg width="21px" height="26px" viewBox="0 0 21 26" version="1.1" xmlns="http://www.w3.org/2000/svg" xmlns:xlink="http://www.w3.org/1999/xlink">
    <!-- Generator: Sketch 53 (72520) - https://sketchapp.com -->
    <title>blue copy</title>
    <desc>Created with Sketch.</desc>
    <g id="Palette" stroke="none" stroke-width="1" fill="none" fill-rule="evenodd">
        <g id="About" transform="translate(-919.000000, -579.000000)">
            <g id="Group-42" transform="translate(497.000000, 451.000000)">
                <g id="Stacked-Group" transform="translate(423.000000, 125.000000)">
                    <g id="blue-copy" transform="translate(0.000000, 4.000000)">
                        <path d="M7.09409523,6.80420896 L7.09409523,10.2539975 L10.6541598,10.2503908 C10.6993689,10.2503908 10.7406197,10.2491886 10.7816621,10.2465837 C11.7177207,10.1858713 12.4494007,9.43067278 12.4494007,8.52740005 C12.4494007,7.57704013 11.6458444,6.80420896 10.6577015,6.80420896 L7.09409523,6.80420896 Z M3.57319806,23.8433629 C1.6287878,23.8433629 0.0523008881,22.3273555 0.0523008881,20.4570921 L0.0523008881,14.0033407 C0.0395923244,13.886324 0.0327171997,13.7673036 0.0327171997,13.6468806 C0.0325088626,13.5242535 0.0391756501,13.4032294 0.0523008881,13.2838082 L0.0523008881,3.41793809 C0.0523008881,1.54767464 1.6287878,0.0314668434 3.57319806,0.0314668434 L10.6577015,0.0314668434 C15.5286232,0.0314668434 19.4914033,3.84272473 19.4914033,8.52740005 C19.4914033,12.9814483 15.8742544,16.7045429 11.2566707,17.0034965 C11.0604171,17.0165206 10.8581218,17.0231329 10.6577015,17.0231329 L7.09409523,17.0265392 L7.09409523,20.4570921 C7.09409523,22.3273555 5.51781665,23.8433629 3.57319806,23.8433629 L3.57319806,23.8433629 Z" id="Fill-1" fill="#A2DDEF"/>
                        <path d="M7.09409523,6.80420896 L7.09409523,10.2539975 L10.6541598,10.2503908 C10.6993689,10.2503908 10.7406197,10.2491886 10.7816621,10.2465837 C11.7177207,10.1858713 12.4494007,9.43067278 12.4494007,8.52740005 C12.4494007,7.57704013 11.6458444,6.80420896 10.6577015,6.80420896 L7.09409523,6.80420896 Z M3.57319806,23.8433629 C1.6287878,23.8433629 0.0523008881,22.3273555 0.0523008881,20.4570921 L0.0523008881,14.0033407 C0.0395923244,13.886324 0.0327171997,13.7673036 0.0327171997,13.6468806 C0.0325088626,13.5242535 0.0391756501,13.4032294 0.0523008881,13.2838082 L0.0523008881,3.41793809 C0.0523008881,1.54767464 1.6287878,0.0314668434 3.57319806,0.0314668434 L10.6577015,0.0314668434 C15.5286232,0.0314668434 19.4914033,3.84272473 19.4914033,8.52740005 C19.4914033,12.9814483 15.8742544,16.7045429 11.2566707,17.0034965 C11.0604171,17.0165206 10.8581218,17.0231329 10.6577015,17.0231329 L7.09409523,17.0265392 L7.09409523,20.4570921 C7.09409523,22.3273555 5.51781665,23.8433629 3.57319806,23.8433629 Z" id="Stroke-3" stroke="#368BD6" stroke-width="0.611925103"/>
                        <path d="M3.57321889,20.457032 L3.57321889,3.41787798 L10.6577223,3.41787798 C13.5917339,3.41787798 15.9703187,5.70551434 15.9703187,8.52733994 C15.9703187,11.2321488 13.7850707,13.4460487 11.0202289,13.62498 C10.9002267,13.6327945 10.7795996,13.6368019 10.6577223,13.6368019 L3.5536352,13.6436145" id="Stroke-5" stroke="#368BD6" stroke-width="0.611925103" stroke-linecap="round"/>
                        <path d="M6.47447983,1.4757815 C7.01428128,2.2165533 7.22157671,3.11541786 7.05824041,4.00566647 C6.89469578,4.89651619 6.38010312,5.6725533 5.60925581,6.19131397 C4.01776862,7.26229727 1.81627037,6.88940673 0.701875166,5.35997445 C0.162073712,4.61920265 -0.0452217134,3.72053846 0.118322918,2.82988911 C0.281659213,1.93923976 0.796251877,1.16300228 1.56730752,0.644441983 C3.15879471,-0.42654132 5.36008462,-0.0536507819 6.47447983,1.4757815 Z M15.9992984,23.8414193 C14.8896949,23.8414193 13.7980084,23.338488 13.1127877,22.3981466 L8.1366558,15.5682988 C7.02080223,14.0366624 7.40726758,11.9249518 8.99958811,10.8519648 C10.5919086,9.77817631 12.7875735,10.150065 13.903427,11.6817014 L18.8795589,18.5115492 C19.9956208,20.0431856 19.6091555,22.1548962 18.0168349,23.2278832 C17.4018238,23.6424509 16.6970193,23.8414193 15.9992984,23.8414193 Z" id="Combined-Shape" fill="#368BD6"/>
                    </g>
                </g>
            </g>
        </g>
    </g>
</svg>